<?xml version="1.0" standalone="no"?>
<!DOCTYPE svg PUBLIC "-//W3C//DTD SVG 20010904//EN"
 "http://www.w3.org/TR/2001/REC-SVG-20010904/DTD/svg10.dtd">
<svg version="1.0" xmlns="http://www.w3.org/2000/svg"
 width="96.000000pt" height="96.000000pt" viewBox="0 0 96.000000 96.000000"
 preserveAspectRatio="xMidYMid meet">
<metadata>
Created by potrace 1.14, written by Peter Selinger 2001-2017
</metadata>
<g transform="translate(0.000000,96.000000) scale(0.100000,-0.100000)"
fill="#000000" stroke="none">
<path d="M435 810 c-11 -5 -29 -22 -40 -38 -22 -35 -70 -51 -131 -46 -110 11
-159 6 -184 -19 -19 -17 -20 -32 -20 -261 0 -228 1 -244 20 -261 17 -16 49
-17 401 -16 343 0 384 2 400 17 18 16 19 36 19 255 0 218 -2 240 -18 256 -11
10 -22 26 -25 36 -12 33 -86 49 -109 23 -11 -13 -18 -9 -44 22 l-31 36 -109 2
c-60 1 -118 -2 -129 -6z m258 -59 c20 -30 34 -40 64 -45 86 -14 98 -17 108
-30 6 -8 10 -101 10 -240 0 -183 -3 -228 -14 -235 -19 -12 -743 -12 -761 -1
-12 8 -15 49 -15 241 0 146 3 237 10 246 14 19 124 30 134 14 6 -9 24 -9 80 0
65 11 74 16 102 51 l31 38 113 0 112 0 26 -39z m137 -21 c0 -12 -27 -12 -55 0
-16 7 -13 9 18 9 20 1 37 -3 37 -9z"/>
<path d="M511 678 c-177 -31 -235 -261 -95 -376 108 -89 277 -51 330 75 8 17
23 34 34 38 48 15 45 78 -5 111 -14 9 -25 21 -25 27 0 18 -49 74 -83 96 -45
27 -103 39 -156 29z m126 -42 c65 -31 103 -89 104 -163 2 -52 -23 -114 -58
-145 -34 -31 -103 -56 -141 -51 -202 25 -249 280 -67 364 54 25 100 23 162 -5z
m153 -166 c0 -10 -4 -22 -10 -25 -6 -4 -10 7 -10 25 0 18 4 29 10 25 6 -3 10
-15 10 -25z"/>
<path d="M506 615 c-20 -7 -47 -21 -58 -32 -28 -24 -57 -91 -52 -117 11 -60
17 -74 41 -100 38 -41 88 -59 140 -51 82 12 144 102 128 184 -17 88 -114 145
-199 116z m115 -38 c41 -28 59 -60 59 -110 0 -81 -61 -134 -144 -125 -53 6
-82 28 -102 75 -19 43 -18 72 4 112 36 67 121 90 183 48z"/>
<path d="M138 658 c-25 -20 -31 -54 -13 -72 21 -20 39 -20 59 0 20 19 20 34 0
62 -17 25 -24 27 -46 10z m32 -37 c0 -23 -16 -36 -25 -21 -9 14 1 40 15 40 5
0 10 -9 10 -19z"/>
<path d="M230 660 c0 -5 5 -10 10 -10 6 0 10 5 10 10 0 6 -4 10 -10 10 -5 0
-10 -4 -10 -10z"/>
<path d="M230 610 c0 -5 5 -10 10 -10 6 0 10 5 10 10 0 6 -4 10 -10 10 -5 0
-10 -4 -10 -10z"/>
<path d="M230 566 c0 -9 5 -16 10 -16 6 0 10 4 10 9 0 6 -4 13 -10 16 -5 3
-10 -1 -10 -9z"/>
<path d="M230 514 c0 -8 5 -12 10 -9 6 3 10 10 10 16 0 5 -4 9 -10 9 -5 0 -10
-7 -10 -16z"/>
<path d="M230 470 c0 -5 5 -10 10 -10 6 0 10 5 10 10 0 6 -4 10 -10 10 -5 0
-10 -4 -10 -10z"/>
<path d="M230 420 c0 -5 5 -10 10 -10 6 0 10 5 10 10 0 6 -4 10 -10 10 -5 0
-10 -4 -10 -10z"/>
<path d="M230 370 c0 -5 5 -10 10 -10 6 0 10 5 10 10 0 6 -4 10 -10 10 -5 0
-10 -4 -10 -10z"/>
<path d="M230 324 c0 -8 5 -12 10 -9 6 4 8 11 5 16 -9 14 -15 11 -15 -7z"/>
<path d="M230 281 c0 -6 5 -13 10 -16 6 -3 10 1 10 9 0 9 -4 16 -10 16 -5 0
-10 -4 -10 -9z"/>
<path d="M230 230 c0 -5 5 -10 10 -10 6 0 10 5 10 10 0 6 -4 10 -10 10 -5 0
-10 -4 -10 -10z"/>
</g>
</svg>
