<svg width="211" height="28" viewBox="0 0 211 28" fill="none" xmlns="http://www.w3.org/2000/svg">
<path d="M16.2926 3.06416C16.2926 0.785878 14.1283 0.216309 12.4196 0.216309V0.55805C13.4448 0.55805 14.2422 0.899792 14.2422 1.69719C14.2422 2.15285 13.9004 2.83633 12.8752 2.83633C12.0778 2.83633 10.3691 2.38067 9.11605 1.92502C7.63517 1.35545 6.26821 0.899792 5.12907 0.899792C2.85079 0.899792 1.25599 2.6085 1.25599 4.54504C1.25599 6.25375 2.50905 6.82332 2.9647 7.05114L3.07862 6.82332C2.85079 6.59549 2.50905 6.36766 2.50905 5.68418C2.50905 5.22852 2.9647 4.43112 4.10384 4.43112C5.12907 4.43112 6.49603 4.88678 8.31866 5.45635C9.91345 5.912 11.6222 6.25375 12.5335 6.36766V9.89901L10.8248 11.3799V11.4938L12.5335 12.9747V17.873C11.6222 18.4426 10.5969 18.5565 9.68562 18.5565C7.97691 18.5565 6.49603 18.1008 5.24298 16.7338L9.91345 14.4556V6.59549L4.21776 9.10159C4.67341 7.62071 5.92646 6.59549 7.17952 5.912L7.0656 5.57026C3.64819 6.48157 0.57251 9.67118 0.57251 13.5443C0.57251 18.1008 4.33167 21.5182 8.54648 21.5182C13.103 21.5182 16.0648 17.873 16.0648 14.1138H15.837C15.1535 15.5947 14.1283 16.9617 12.8752 17.6452V12.9747L14.6978 11.4938V11.3799L12.8752 9.89901V6.36766C14.5839 6.36766 16.2926 5.22852 16.2926 3.06416ZM6.38212 15.5947L5.01515 16.2782C4.21775 15.253 3.7621 13.886 3.7621 11.9495C3.7621 11.1521 3.7621 10.2408 3.98993 9.55727L6.38212 8.53202V15.5947ZM18.457 18.2147L16.9761 19.3539L17.2039 19.5817L17.8874 19.0121L20.3935 21.2904L23.8109 19.0121L23.697 18.7843L22.7857 19.3539L21.6466 18.2147V10.4686L22.5579 9.7851L24.4944 11.3799V18.3286C24.4944 22.6574 23.5831 23.3409 21.6466 24.0243V24.3661C24.8362 24.48 27.7979 23.4548 27.7979 17.873V10.3547L28.8232 9.55727L28.5953 9.32944L27.684 10.0129L24.8362 7.62071L21.6466 10.0129V0.671964H21.4188L17.4318 3.4059V3.63373C17.8874 3.86155 18.5709 4.08938 18.5709 5.34243L18.457 18.2147ZM39.3032 16.9617L36.4554 19.126L33.6075 16.8478V15.4808L38.9615 11.8355V11.7216L36.2276 7.62071L30.304 10.8103V18.3286L29.1649 19.24L29.3927 19.4678L30.418 18.6704L34.291 21.5182L39.4172 17.4173L39.3032 16.9617ZM33.6075 15.0251V9.44336L33.8354 9.32944L36.3415 13.3164L33.6075 15.0251ZM61.0608 2.03893C61.0608 1.69719 60.9469 1.35545 60.833 1.01371H60.6051C60.2634 1.92502 59.8077 2.38067 58.6686 2.38067C57.6434 2.38067 56.9599 1.8111 56.5042 1.35545L53.2007 5.11461L53.4286 5.34243L54.5677 4.31721C55.2512 4.88678 55.8208 5.34243 57.4156 5.45635V14.9112L50.6946 3.4059C50.1251 2.49459 49.3277 1.24153 47.7329 1.24153C45.9102 1.24153 44.3155 2.83633 44.5433 5.34243H44.885C44.9989 4.65895 45.3407 3.86155 46.1381 3.86155C46.7076 3.86155 47.2772 4.43112 47.619 5.00069V8.75985C45.5685 8.75985 44.2015 9.67118 44.2015 11.3799C44.2015 12.2912 44.6572 13.6582 46.0242 13.9999V13.7721C45.7963 13.5443 45.6824 13.3164 45.6824 12.9747C45.6824 12.4051 46.1381 11.9495 46.9355 11.9495H47.505V16.7338C45.1129 16.7338 43.1763 18.1008 43.1763 20.3791C43.1763 22.5435 44.9989 23.5687 47.0494 23.4548V23.2269C45.7963 23.113 45.2268 22.5435 45.2268 21.7461C45.2268 20.7208 45.9103 20.2652 46.8216 20.2652C47.7329 20.2652 48.5303 20.8347 49.0998 21.5182L52.4033 17.873L52.1755 17.6452L51.3781 18.5565C50.1251 17.4173 49.4416 17.0756 47.9607 16.8478V5.45635L57.0738 21.4043H57.7573V5.45635C59.466 5.34243 61.0608 3.97547 61.0608 2.03893ZM69.3765 16.9617L66.5287 19.126L63.6808 16.8478V15.4808L69.0348 11.8355V11.7216L66.3008 7.62071L60.3773 10.8103V18.3286L59.2382 19.24L59.466 19.4678L60.4912 18.6704L64.3643 21.5182L69.4904 17.4173L69.3765 16.9617ZM63.6808 15.0251V9.44336L63.9086 9.32944L66.4148 13.3164L63.6808 15.0251ZM87.9445 8.87377L87.1471 9.44336L84.9827 7.62071L82.4766 9.89901L83.5018 10.9242V19.4678L80.7679 17.7591V10.6964L81.6792 10.1268L79.0592 7.62071L76.5531 9.89901L77.5783 10.9242V19.126L77.2366 19.3539L74.8444 17.6452V10.8103C74.8444 9.21551 74.047 8.75985 73.1357 8.19028C72.3383 7.62071 71.8826 7.27897 71.8826 6.48157C71.8826 5.79809 72.5661 5.45635 72.9078 5.22852V5.00069C71.9965 5.00069 69.6043 5.91201 69.6043 8.07637C69.6043 9.21551 70.1739 9.67118 70.7435 10.2408C71.3131 10.8103 71.8826 11.266 71.8826 12.2912V18.8982L70.6296 19.8095L70.8574 20.0373L71.9965 19.126L74.6166 21.4043L77.4644 19.4678L80.654 21.4043L86.6914 17.873V10.2408L88.1723 9.10159L87.9445 8.87377ZM109.132 2.6085L107.993 3.63373L105.487 1.35545L101.728 4.08938V1.58328H101.386L101.5 20.0373C101.158 20.0373 100.133 19.8095 99.3359 19.5817L99.1081 4.2033C99.1081 3.06416 98.3107 1.46936 96.2602 1.46936C94.2098 1.46936 92.8428 3.06416 92.8428 4.65895H93.1845C93.2984 3.97547 93.6402 3.4059 94.3237 3.4059C95.0071 3.4059 95.5767 3.86155 95.5767 5.34243V9.7851C93.5263 9.89901 92.2732 11.0381 92.2732 12.519C92.2732 13.4303 92.7289 14.7973 94.0958 14.7973V14.5695C93.6402 14.3417 93.5263 13.9999 93.5263 13.7721C93.5263 13.0886 94.0958 12.8608 95.0072 12.8608H95.4628V19.9234C93.7541 20.493 93.0706 21.7461 93.0706 23.113C93.0706 25.0496 94.5515 26.4165 96.8298 26.4165C98.4246 26.4165 99.7915 26.1887 101.158 25.847C102.298 25.6191 103.779 25.2774 104.462 25.2774C105.373 25.2774 105.715 25.733 105.715 26.3026C105.715 27.1 105.373 27.4418 104.918 27.5557V27.7835C106.74 27.4418 107.879 26.3026 107.879 24.5939C107.879 22.8852 106.171 21.86 104.348 21.86C103.437 21.86 101.5 22.2017 100.133 22.4295C98.5385 22.7713 96.9437 22.9991 96.488 22.9991C95.6906 22.9991 94.7793 22.6574 94.7793 21.5182C94.7793 20.6069 95.5767 19.8095 97.5133 19.8095C98.5385 19.8095 99.7915 19.9234 101.045 20.2652C102.412 20.6069 103.665 20.9487 104.804 20.9487C106.512 20.9487 107.993 20.3791 107.993 17.9869V3.97547L109.36 2.83633L109.132 2.6085ZM104.462 9.55727C104.12 9.89901 103.665 10.2408 103.095 10.2408C102.525 10.2408 101.956 9.89901 101.728 9.55727V4.54504L102.867 3.74764L104.462 5.22852V9.55727ZM104.462 12.9747C104.234 12.7469 103.665 12.4051 103.095 12.4051C102.525 12.4051 101.956 12.7469 101.728 12.9747V10.0129C101.956 10.2408 102.525 10.5825 103.095 10.5825C103.665 10.5825 104.234 10.2408 104.462 10.0129V12.9747ZM104.462 18.3286C104.462 19.24 103.892 20.1513 102.639 20.1513H101.728V13.4303C101.956 13.2025 102.525 12.8608 103.095 12.8608C103.665 12.8608 104.12 13.2025 104.462 13.4303V18.3286ZM120.068 10.2408L116.423 7.62071L110.841 10.8103V18.2147L109.702 19.126L109.816 19.3539L110.727 18.6704L114.373 21.4043L120.068 17.9869V10.2408ZM113.917 17.4173V9.21551L116.765 11.266V19.3539L113.917 17.4173ZM130.89 7.84854H130.662C130.32 8.07637 129.979 8.3042 129.637 8.3042C129.181 8.3042 128.612 8.07637 128.384 7.73463H128.156L126.22 9.89901L124.283 7.73463L120.866 10.0129L120.98 10.2408L121.891 9.67118L123.03 10.9242V18.1008L121.549 19.24L121.777 19.4678L122.46 18.8982L125.194 21.1765L128.726 18.7843L128.612 18.5565L127.587 19.126L126.22 17.9869V10.0129C126.789 10.5825 127.473 11.1521 128.27 11.1521C129.865 11.266 130.776 9.67118 130.89 7.84854ZM144.56 18.7843L140.687 21.4043L135.447 13.4303L139.206 7.62071H139.434C139.889 8.07637 140.573 8.53202 141.37 8.53202C142.168 8.53202 142.737 8.07637 143.079 7.62071H143.307C143.193 9.89901 141.598 11.266 140.459 11.266C139.32 11.266 138.75 10.6964 138.067 10.3547L137.725 10.9242L143.421 19.3539L144.56 18.6704V18.7843ZM132.029 18.2147L130.548 19.3539L130.776 19.5817L131.46 19.0121L133.966 21.2904L137.383 19.0121L137.155 18.7843L136.244 19.3539L135.105 18.2147V0.671964H134.991L130.89 3.4059V3.63373C131.346 3.86155 132.029 3.97547 132.029 5.34243V18.2147ZM163.469 3.06416C163.469 0.785878 161.305 0.216309 159.596 0.216309V0.55805C160.622 0.55805 161.419 0.899792 161.419 1.69719C161.419 2.15285 161.077 2.83633 160.052 2.83633C159.255 2.83633 157.546 2.38067 156.293 1.92502C154.812 1.46936 153.445 1.01371 152.306 1.01371C150.028 1.01371 148.433 2.72241 148.433 4.65895C148.433 6.36766 149.686 6.93723 150.141 7.16506L150.255 6.93723C149.914 6.7094 149.572 6.48157 149.572 5.79809C149.572 5.34244 150.028 4.54504 151.167 4.54504C152.192 4.54504 153.559 5.00069 155.382 5.57026C156.976 6.02592 158.685 6.36766 159.596 6.48157V10.0129L157.888 11.4938V11.6077L159.596 13.0886V17.9869C158.685 18.5565 157.66 18.6704 156.748 18.6704C155.04 18.6704 153.559 18.2147 152.306 16.8478L156.976 14.5695V6.59549L151.281 9.10159C151.85 7.62071 153.103 6.59549 154.242 5.79809L154.128 5.57026C150.711 6.48157 147.635 9.55727 147.635 13.4303C147.635 17.9869 151.395 21.4043 155.609 21.4043C160.166 21.4043 163.128 17.7591 163.128 13.9999H162.9C162.216 15.4808 161.191 16.8478 159.938 17.5312V12.8608L161.761 11.3799V11.266L160.052 9.7851V6.36766C161.761 6.36766 163.469 5.22852 163.469 3.06416ZM153.559 15.5947L152.192 16.2782C151.395 15.253 150.939 13.886 150.939 11.9495C150.939 11.1521 151.053 10.2408 151.281 9.55727L153.673 8.53202L153.559 15.5947ZM167.456 1.92502H167.342L165.064 3.86155V3.97547L167.001 6.13983H167.229L169.507 4.2033V4.08938L167.456 1.92502ZM170.874 18.7843L169.963 19.3539L168.823 18.2147V10.3547L169.963 9.55727L169.735 9.32944L168.937 10.0129L166.887 7.62071L163.583 9.89901L163.811 10.2408L164.609 9.67118L165.634 10.9242V18.3286L164.153 19.4678L164.267 19.6956L165.064 19.126L167.57 21.4043L170.988 19.126L170.874 18.7843ZM189.897 18.6704L189.1 19.24L187.847 18.1008V10.3547L188.986 9.44336L188.758 9.21551L187.847 10.0129L185.227 7.62071L181.81 10.0129L179.19 7.62071L176 10.0129L173.949 7.62071L170.646 9.89901L170.76 10.2408L171.557 9.67118L172.696 10.9242V18.3286L171.785 19.24L174.405 21.4043L176.911 19.126L175.886 18.1008V10.3547L176.911 9.67118L178.62 11.266V18.1008L177.709 19.0121L180.329 21.1765L182.835 18.8982L181.81 17.873V10.3547L182.721 9.7851L184.543 11.3799V18.2147L183.746 19.0121L186.366 21.4043L189.897 19.0121V18.6704ZM199.808 16.9617L196.96 19.126L194.112 16.8478V15.4808L199.466 11.8355V11.7216L196.732 7.62071L190.809 10.8103V18.5565L194.796 21.4043L199.922 17.3034L199.808 16.9617ZM194.112 15.0251V9.44336L194.34 9.32944L196.846 13.3164L194.112 15.0251ZM210.174 13.9999L208.01 12.2912C209.491 11.0381 210.06 9.32944 210.06 8.19028V7.5068H209.832C209.605 8.07637 209.149 8.64594 208.238 8.64594C207.326 8.64594 206.757 8.19028 206.187 7.5068L201.061 10.3547V14.4556L202.998 15.9364C201.061 17.6452 200.719 18.7843 200.719 19.6956C200.719 20.8347 201.289 21.6321 202.2 21.9739L202.314 21.7461C202.086 21.5182 201.858 21.4043 201.858 20.8347C201.858 20.493 202.314 19.9234 203.225 19.9234C204.365 19.9234 205.048 20.7208 205.39 21.0626L210.288 18.1008V13.9999H210.174ZM208.921 10.5825C208.124 11.9495 206.415 13.3164 205.39 13.9999L204.137 12.9747V8.98768C204.592 10.1268 205.845 11.0382 207.098 11.0382C207.896 11.0382 208.351 10.9242 208.921 10.5825ZM206.985 19.6956C206.415 18.4426 205.048 17.5312 203.681 17.5312C203.339 17.5312 202.428 17.5312 201.517 18.1008C202.086 17.1895 203.567 15.5947 205.504 14.4556L206.871 15.5947L206.985 19.6956Z" fill="black"/>
</svg>
