<svg width="56" height="20" viewBox="0 0 56 20" fill="none" xmlns="http://www.w3.org/2000/svg">
<g clip-path="url(#clip0_2307_16306)">
<path d="M6.56389 5.10532H1.08875V0H18.105V5.10532H12.6286V20H6.56389V5.10532ZM19.0466 0H35.592V5.10532H25.1118V7.56799H35.592V12.3721H25.1118V14.8947H35.592V20H19.0466V0ZM36.5923 0H46.543C53.079 0 55.3744 4.92516 55.3744 9.97037C55.3744 16.0964 52.1944 20 45.3651 20H36.5923V0ZM42.6575 14.8947H45.0116C48.7797 14.8947 49.3109 11.7722 49.3109 9.91043C49.3109 8.64862 48.8987 5.16543 44.5408 5.16543H42.5972L42.6575 14.8947Z" fill="black"/>
</g>
<defs>
<clipPath id="clip0_2307_16306">
<rect width="55" height="20" fill="white" transform="translate(0.731812)"/>
</clipPath>
</defs>
</svg>
