<svg width="130" height="26" viewBox="0 0 130 26" fill="none" xmlns="http://www.w3.org/2000/svg">
<path d="M28.2747 2.62506C26.1869 1.64987 23.9545 0.941151 21.6205 0.537598C21.3339 1.05494 20.999 1.75077 20.7681 2.30431C18.2871 1.93183 15.8288 1.93183 13.3934 2.30431C13.1626 1.75077 12.8201 1.05494 12.5309 0.537598C10.1945 0.941151 7.95946 1.65248 5.87161 2.63022C1.6604 8.98303 0.518807 15.1781 1.0896 21.2851C3.8827 23.3674 6.58955 24.6323 9.25072 25.46C9.90777 24.5572 10.4938 23.5976 10.9986 22.5862C10.0371 22.2215 9.11626 21.7714 8.24614 21.2489C8.47698 21.0782 8.70278 20.8997 8.92093 20.716C14.2281 23.1941 19.9944 23.1941 25.2381 20.716C25.4588 20.8997 25.6846 21.0782 25.9129 21.2489C25.0402 21.774 24.1168 22.2241 23.1553 22.5888C23.6602 23.5976 24.2437 24.5598 24.9032 25.4625C27.567 24.6348 30.2763 23.37 33.0694 21.2851C33.7392 14.2055 31.9253 8.06735 28.2747 2.62506ZM11.7216 17.5293C10.1285 17.5293 8.82198 16.0446 8.82198 14.2365C8.82198 12.4284 10.1006 10.9411 11.7216 10.9411C13.3427 10.9411 14.6492 12.4258 14.6213 14.2365C14.6238 16.0446 13.3427 17.5293 11.7216 17.5293ZM22.4374 17.5293C20.8443 17.5293 19.5377 16.0446 19.5377 14.2365C19.5377 12.4284 20.8163 10.9411 22.4374 10.9411C24.0584 10.9411 25.365 12.4258 25.3371 14.2365C25.3371 16.0446 24.0584 17.5293 22.4374 17.5293Z" fill="black"/>
<path d="M44.2954 6.896H51.2209C52.8904 6.896 54.3008 7.16241 55.4579 7.69269C56.6118 8.22291 57.4771 8.96271 58.0505 9.90943C58.6236 10.8561 58.9127 11.9399 58.9127 13.1608C58.9127 14.3559 58.6134 15.4397 58.0147 16.4097C57.4161 17.3822 56.5053 18.1505 55.2801 18.717C54.055 19.2834 52.5376 19.568 50.7239 19.568H44.2954V6.896ZM50.6527 16.3476C51.7766 16.3476 52.6419 16.0605 53.2454 15.4888C53.8494 14.9146 54.1514 14.1334 54.1514 13.1427C54.1514 12.2245 53.8821 11.4924 53.3445 10.9441C52.8068 10.3957 51.9924 10.1189 50.9039 10.1189H48.7374V16.3476H50.6527Z" fill="black"/>
<path d="M69.2804 19.5528C68.3214 19.2993 67.4562 18.932 66.6877 18.4483V15.4426C67.2687 15.9004 68.0473 16.2781 69.024 16.5756C70.0007 16.8705 70.9446 17.0179 71.8576 17.0179C72.2838 17.0179 72.6062 16.961 72.8241 16.8471C73.0426 16.7334 73.1518 16.5963 73.1518 16.4385C73.1518 16.2574 73.0934 16.1074 72.974 15.9858C72.8546 15.8642 72.6238 15.7633 72.2816 15.678L70.1505 15.1891C68.9303 14.8994 68.065 14.4985 67.5504 13.9837C67.0353 13.4716 66.7788 12.799 66.7788 11.9662C66.7788 11.2652 67.0021 10.6573 67.454 10.1374C67.9027 9.61748 68.5421 9.21654 69.3715 8.93458C70.2014 8.65007 71.1701 8.50781 72.2838 8.50781C73.2782 8.50781 74.189 8.61644 75.0189 8.83373C75.8483 9.05102 76.5332 9.32776 77.0788 9.66661V12.5094C76.5204 12.1705 75.8811 11.9041 75.1507 11.7023C74.4225 11.5031 73.6744 11.4048 72.9028 11.4048C71.7891 11.4048 71.2338 11.5988 71.2338 11.9842C71.2338 12.1653 71.32 12.2998 71.4924 12.3904C71.6649 12.4809 71.9819 12.574 72.4413 12.6723L74.2169 12.9982C75.3766 13.2026 76.2414 13.5621 76.8095 14.0743C77.3781 14.5864 77.662 15.3443 77.662 16.3479C77.662 17.4472 77.1929 18.319 76.2516 18.9656C75.3103 19.6123 73.9759 19.9356 72.2458 19.9356C71.2285 19.933 70.2394 19.8063 69.2804 19.5528Z" fill="black"/>
<path d="M81.854 19.1724C80.8371 18.6654 80.0682 17.9774 79.5558 17.1083C79.0433 16.2392 78.7847 15.2614 78.7847 14.175C78.7847 13.0886 79.0508 12.1161 79.5836 11.2599C80.1164 10.4037 80.8976 9.73115 81.9278 9.24228C82.9575 8.75341 84.188 8.51025 85.6214 8.51025C87.397 8.51025 88.8711 8.8905 90.0432 9.65095V12.9645C89.6298 12.6748 89.1474 12.4394 88.597 12.2583C88.0465 12.0773 87.458 11.9867 86.8289 11.9867C85.728 11.9867 84.868 12.191 84.2464 12.6023C83.6247 13.0136 83.313 13.549 83.313 14.2138C83.313 14.8656 83.6146 15.3985 84.2185 15.8176C84.8225 16.234 85.6975 16.4435 86.8466 16.4435C87.4377 16.4435 88.0213 16.3556 88.597 16.1823C89.1704 16.0064 89.6652 15.7917 90.0786 15.5382V18.743C88.7774 19.5397 87.2679 19.938 85.5502 19.938C84.1044 19.9329 82.8713 19.6794 81.854 19.1724Z" fill="black"/>
<path d="M94.4724 19.1722C93.4475 18.6653 92.6663 17.972 92.1282 17.09C91.5906 16.2079 91.3191 15.225 91.3191 14.1386C91.3191 13.0522 91.5879 12.0822 92.1282 11.2312C92.6685 10.3802 93.4449 9.71285 94.4649 9.22914C95.4818 8.74543 96.6972 8.50488 98.105 8.50488C99.5132 8.50488 100.728 8.74543 101.746 9.22914C102.763 9.71285 103.539 10.3751 104.072 11.2209C104.605 12.0667 104.871 13.0367 104.871 14.136C104.871 15.2224 104.605 16.2054 104.072 17.0874C103.539 17.9694 102.76 18.6627 101.735 19.1697C100.71 19.6766 99.5004 19.9301 98.1028 19.9301C96.7047 19.9301 95.4946 19.6792 94.4724 19.1722ZM99.8682 15.9596C100.3 15.5199 100.518 14.9379 100.518 14.2136C100.518 13.4894 100.302 12.9125 99.8682 12.4857C99.4371 12.0564 98.8482 11.8417 98.1028 11.8417C97.3441 11.8417 96.7503 12.0564 96.3165 12.4857C95.8855 12.9151 95.6697 13.4894 95.6697 14.2136C95.6697 14.9379 95.8855 15.5199 96.3165 15.9596C96.7481 16.3993 97.3441 16.6218 98.1028 16.6218C98.8482 16.6192 99.4371 16.3993 99.8682 15.9596Z" fill="black"/>
<path d="M115.541 9.1777V13.0887C115.089 12.7861 114.506 12.636 113.783 12.636C112.836 12.636 112.106 12.9284 111.598 13.5129C111.089 14.0975 110.835 15.008 110.835 16.2392V19.5709H106.484V8.97855H110.746V12.3464C110.982 11.1151 111.365 10.2072 111.893 9.62001C112.418 9.03544 113.098 8.74316 113.925 8.74316C114.551 8.74316 115.089 8.88803 115.541 9.1777Z" fill="black"/>
<path d="M129.996 6.53418V19.5709H125.645V17.199C125.277 18.0913 124.719 18.7716 123.969 19.2372C123.217 19.7003 122.289 19.933 121.188 19.933C120.204 19.933 119.346 19.6899 118.613 19.201C117.88 18.7121 117.314 18.0422 116.916 17.1912C116.52 16.3402 116.32 15.378 116.32 14.3019C116.307 13.1923 116.518 12.1964 116.951 11.3143C117.383 10.4323 117.994 9.74424 118.781 9.25016C119.567 8.75613 120.465 8.50781 121.472 8.50781C123.545 8.50781 124.935 9.42605 125.645 11.26V6.53418H129.996ZM124.996 15.8875C125.44 15.4478 125.661 14.8762 125.661 14.1778C125.661 13.5026 125.445 12.9517 125.014 12.5301C124.582 12.1084 123.991 11.8963 123.248 11.8963C122.515 11.8963 121.929 12.111 121.49 12.5404C121.051 12.9698 120.833 13.5259 120.833 14.214C120.833 14.902 121.051 15.4633 121.49 15.8979C121.929 16.3324 122.507 16.5497 123.23 16.5497C123.963 16.5471 124.552 16.3272 124.996 15.8875Z" fill="black"/>
<path d="M62.5788 10.1059C63.7765 10.1059 64.7479 9.21647 64.7479 8.11933C64.7479 7.02219 63.7765 6.13281 62.5788 6.13281C61.3806 6.13281 60.4097 7.02219 60.4097 8.11933C60.4097 9.21647 61.3806 10.1059 62.5788 10.1059Z" fill="black"/>
<path d="M60.4075 11.4746C61.7365 12.0592 63.3857 12.085 64.7453 11.4746V19.6277H60.4075V11.4746Z" fill="black"/>
</svg>
