<svg width="171" height="42" viewBox="0 0 171 42" fill="none" xmlns="http://www.w3.org/2000/svg">
<g clip-path="url(#clip0_2038_16501)">
<path d="M41.1109 36.3023V34.7227H34.2988V41.3154H36.0081V38.8238H39.88V37.279H36.0081V36.3023H41.1109Z" fill="black"/>
<path d="M57.1116 34.7227H55.4023V41.3154H57.1116V34.7227Z" fill="black"/>
<path d="M71.3125 36.2924H74.3672V41.3154H76.0764V36.2924H79.1311V34.7227H71.3125V36.2924Z" fill="black"/>
<path d="M99.1893 38.5746L93.8174 34.6279H93.2344V41.3154H94.9486V37.4434L100.34 41.4549H100.904V34.7226H99.1893V38.5746Z" fill="black"/>
<path d="M117.268 38.7092H120.886V37.1694H117.268V36.3023H122.281V34.7227H115.559V41.3154H122.525V39.7308H117.268V38.7092Z" fill="black"/>
<path d="M141.212 37.1695L139.368 37.0847C138.142 37.0299 138.142 36.8157 138.142 36.701C138.142 36.3472 138.845 36.1379 140.016 36.1379C141.511 36.1379 142.248 36.427 142.821 36.7409L143.15 36.9203L143.898 35.53L143.569 35.3506C142.632 34.8373 141.566 34.623 140.011 34.623C137.738 34.623 136.433 35.4104 136.433 36.7758C136.433 38.5149 138.426 38.6245 139.179 38.6644L141.022 38.7491C142.388 38.8139 142.388 39.0232 142.388 39.2076C142.388 39.6461 141.61 39.9102 140.31 39.9102C138.745 39.9102 137.808 39.5116 137.305 39.1777L137.001 38.9734L136.084 40.2939L136.408 40.5032C137.375 41.1311 138.615 41.4251 140.31 41.4251C142.732 41.4251 144.122 40.5879 144.122 39.1328C144.122 37.309 142.154 37.2143 141.212 37.1695Z" fill="black"/>
<path d="M162.7 37.1693L160.856 37.0846C159.63 37.0298 159.63 36.8155 159.63 36.7009C159.63 36.3471 160.328 36.1378 161.504 36.1378C162.999 36.1378 163.741 36.4268 164.314 36.7358L164.643 36.9152L165.391 35.5249L165.062 35.3455C164.12 34.8322 163.059 34.6179 161.504 34.6179C159.231 34.6179 157.931 35.4053 157.931 36.7707C157.931 38.5098 159.919 38.6194 160.677 38.6593L162.52 38.744C163.886 38.8088 163.886 39.0181 163.886 39.2025C163.886 39.641 163.108 39.9051 161.808 39.9051C160.243 39.9051 159.306 39.5064 158.803 39.1726L158.499 38.9732L157.582 40.2888L157.906 40.4981C158.873 41.126 160.113 41.42 161.808 41.42C164.23 41.42 165.615 40.5828 165.615 39.1277C165.615 37.3039 163.647 37.2092 162.705 37.1643L162.7 37.1693Z" fill="black"/>
<path d="M30.794 14.2717H34.2025V15.7218L34.372 15.5275L34.5863 15.2633C35.269 14.4461 36.2307 14.0325 37.317 13.9827H37.7257V17.0722C37.5562 17.0224 37.3868 16.9975 37.2174 16.9776C35.2839 16.8081 34.3421 17.7998 34.3421 19.7084V26.7895H30.7891V14.2717H30.794Z" fill="black"/>
<path d="M41.8065 19.175C42.3646 19.1002 42.9178 19.0753 43.4709 19.15C44.632 19.2696 45.4044 19.5587 46.0572 20.042V19.175C46.0572 17.8943 45.2349 17.097 43.1819 16.8528C42.4095 16.7581 41.2035 16.7581 39.8481 16.9275C39.6538 16.9525 39.4594 16.9774 39.2701 17.0222V14.3163C39.9926 14.1967 40.6205 14.1469 41.3231 14.0971C47.1933 13.8778 49.4657 15.7864 49.4657 19.3892V26.7843H45.9625V25.673C45.8429 25.7677 45.6984 25.8923 45.5788 25.987C44.612 26.6647 43.5755 27.0036 42.245 26.9786C39.2252 26.9786 37.4362 25.1199 37.5309 23.1117C37.5758 21.1533 39.1006 19.5088 41.8065 19.175ZM43.1619 24.806C43.4759 24.8309 43.7649 24.8309 44.0539 24.7811C44.612 24.7063 44.9957 24.5618 45.3097 24.3475C46.2017 23.7695 46.3013 22.6084 45.6236 21.9805C45.2848 21.6666 44.7267 21.4024 44.0539 21.3277C42.1952 21.0835 41.1288 21.9307 41.059 23.0668C41.079 23.9588 41.7816 24.6864 43.1619 24.806Z" fill="black"/>
<path d="M52.1328 14.2717H55.5413V15.6271C55.636 15.5324 55.7357 15.4328 55.8303 15.3381C56.822 14.471 57.8336 14.0574 59.0445 14.0325C62.0892 13.9577 63.9729 16.0108 63.9729 19.5888V26.7895H60.4199V20.0472C60.4448 18.2084 59.792 17.2666 58.5113 16.9327C56.7473 16.4992 55.6858 17.4659 55.6858 19.3994V26.7945H52.1328V14.2717Z" fill="black"/>
<path d="M66.1163 19.3943C66.3804 17.705 67.3023 16.2549 68.6278 15.313C71.0696 13.5739 74.2588 13.9377 75.7538 15.7217V14.2716H79.1623V26.7146C79.1623 30.2178 76.8152 32.3954 72.0313 32.4652C71.3088 32.4652 70.5812 32.4154 69.8337 32.2958V29.2012C70.5114 29.3956 71.1842 29.4902 71.8619 29.4653C74.4233 29.4155 75.5843 28.3541 75.5843 26.5202V25.6033C74.3037 27.0784 71.8619 27.6315 69.47 26.5452C67.5863 25.698 66.3305 23.9838 66.0615 21.7862C66.0166 21.3975 65.9618 20.9889 65.9867 20.6002C65.9867 20.1916 66.0365 19.8029 66.1063 19.3943M69.6344 21.0836C69.8786 23.2114 71.3735 24.3675 73.307 24.0336C74.6375 23.8144 75.5544 22.7779 75.7488 21.1085C75.7986 20.7198 75.7986 20.3361 75.7488 19.9723C75.5096 18.0139 74.3485 16.9525 72.6791 16.9525C71.0098 16.9525 69.8736 18.0139 69.6344 19.9474C69.6095 20.1418 69.5846 20.3361 69.5846 20.5255C69.5846 20.7148 69.6095 20.8892 69.6344 21.0836Z" fill="black"/>
<path d="M94.7349 14.2717H96.1352V11.0824L97.9441 10.335V14.2717H101.303L100.964 15.6022H97.9441V22.5787L97.9939 23.356C98.0188 24.8311 98.9357 25.6284 100.819 25.5088C100.964 25.5088 101.108 25.4839 101.253 25.459V26.8592C101.108 26.8842 100.964 26.9091 100.819 26.9091C97.2663 27.1981 96.1352 25.9672 96.1352 22.2448V15.6022H94.5156L94.7349 14.2717Z" fill="black"/>
<path d="M102.831 9.3882L104.665 8.99951V16.2949C104.884 15.981 105.148 15.6919 105.437 15.4278C106.14 14.775 106.987 14.3415 107.924 14.1472C111.572 13.3748 114.278 15.7169 114.278 19.5091V26.7796H112.439V20.112C112.439 17.0424 111.038 15.4976 108.597 15.5474C106.155 15.5723 104.66 17.1919 104.66 19.7981V26.7796H102.826V9.3882H102.831Z" fill="black"/>
<path d="M116.775 17.9492C117.627 15.8512 119.451 14.426 121.723 14.0772C125.595 13.4892 128.939 16.2648 129.123 20.1467C129.128 20.4009 129.123 20.675 129.103 20.9441H118.2C118.185 21.0238 118.19 21.1733 118.185 21.2729C118.294 22.8825 119.176 24.228 120.691 24.9954C122.58 25.9671 124.862 25.5934 126.572 23.934C126.641 23.8542 126.741 23.7795 126.816 23.6748L128.181 24.6266C127.802 25.1 127.364 25.5037 126.861 25.8674C125.181 27.0584 123.203 27.4172 121.15 26.8541C117.467 25.8375 115.658 22.733 116.391 19.2049C116.481 18.7764 116.6 18.3578 116.76 17.9541M127.329 19.6135L127.319 19.3843L127.279 19.1003C127.254 18.9009 127.229 18.8112 127.15 18.5372C126.626 16.7133 124.992 15.4625 122.944 15.4227C120.866 15.4027 119.152 16.6336 118.469 18.6518C118.384 18.9558 118.294 19.2797 118.28 19.6036L127.324 19.6135H127.329Z" fill="black"/>
<path d="M138.929 13.9328C142.357 14.4411 144.485 16.9775 144.485 20.4807C144.485 23.9839 142.357 26.5203 138.929 27.0286C134.364 27.6814 131.025 24.7314 131.025 20.4807C131.025 16.23 134.359 13.28 138.929 13.9328ZM136.945 25.3842C137.479 25.4788 138.032 25.4788 138.585 25.3842C141.341 24.9008 143.005 22.5089 142.477 19.4143C142.282 18.328 141.824 17.4559 141.077 16.7583C140.229 15.9609 139.093 15.5274 137.768 15.5274C136.442 15.5274 135.301 15.9609 134.459 16.7583C133.492 17.6552 132.964 18.911 132.964 20.4807C132.964 23.0919 134.509 24.9755 136.95 25.3842" fill="black"/>
<path d="M146.913 14.2716H148.702V16.0357C148.772 15.941 148.822 15.8413 148.897 15.7467C149.764 14.5407 150.875 13.9328 152.325 13.9128C152.494 13.9128 152.664 13.9128 152.833 13.9378V15.652C152.664 15.6271 152.469 15.6021 152.275 15.6021C151.164 15.5523 150.197 15.941 149.544 16.6636C148.986 17.3164 148.747 17.9941 148.747 19.1053V26.7894H146.908V14.2716H146.913Z" fill="black"/>
<path d="M154.328 14.2716H156.167V21.1085C156.167 23.7397 157.059 24.9755 159.137 25.3592C159.695 25.4589 160.248 25.4589 160.806 25.3343C162.909 24.9456 163.876 23.6898 163.876 21.4922V14.2666H165.69V26.2512C165.69 29.7045 163.178 31.9769 158.056 31.6629C157.742 31.6629 157.453 31.6131 157.164 31.5882V30.0434C157.453 30.0932 157.747 30.1132 158.036 30.1381C162.022 30.3573 163.861 28.7378 163.861 25.9323V24.7961C163.766 24.9406 163.642 25.0602 163.547 25.1848C162.461 26.3907 161.205 26.9488 159.461 26.9488C156.441 26.9488 154.557 25.1349 154.363 22.3593C154.338 22.0205 154.338 22.0055 154.338 21.2979V14.2666L154.328 14.2716Z" fill="black"/>
<path d="M169.193 9.65234C170.488 9.65234 171.495 10.6589 171.495 11.9147C171.495 13.1705 170.488 14.192 169.178 14.192C167.867 14.192 166.846 13.2004 166.846 11.9147C166.846 10.629 167.882 9.65234 169.178 9.65234H169.193ZM169.163 10.1058C168.171 10.1058 167.424 10.9181 167.424 11.9147C167.424 12.9114 168.171 13.7236 169.188 13.7236C170.179 13.7386 170.912 12.9213 170.912 11.9147C170.912 10.9081 170.179 10.1058 169.173 10.1058H169.158H169.163ZM168.819 13.0858H168.296V10.8383C168.505 10.7985 168.794 10.7536 169.163 10.7536C169.591 10.7536 169.786 10.8234 169.95 10.933C170.075 11.0277 170.17 11.2071 170.17 11.4164C170.17 11.6805 169.975 11.8699 169.701 11.9546V11.9845C169.92 12.0542 170.045 12.2336 170.115 12.5376C170.184 12.8815 170.224 13.021 170.279 13.0907H169.716C169.646 13.006 169.606 12.8167 169.537 12.5526C169.497 12.3034 169.357 12.1938 169.068 12.1938H168.819V13.0907V13.0858ZM168.834 11.815H169.083C169.372 11.815 169.606 11.7204 169.606 11.4862C169.606 11.2769 169.452 11.1423 169.123 11.1423C168.983 11.1423 168.889 11.1573 168.834 11.1722V11.82V11.815Z" fill="black"/>
<path d="M94.0154 21.4823C94.0353 21.1435 94.0353 20.7747 94.0353 20.4309C93.9356 16.7633 91.4241 14.177 87.8711 13.9577C87.004 13.9129 86.1469 14.0225 85.3396 14.3016C83.142 15.064 81.6421 16.833 81.1388 19.0705C80.3863 22.3943 82.1903 25.8676 85.9426 26.8941C88.4791 27.6067 90.876 26.924 92.7297 24.9855C92.8393 24.8659 92.9191 24.7613 93.0287 24.6417L90.3079 22.7979C90.2431 22.8527 90.1982 22.9175 90.1335 22.9723C89.6302 23.5105 89.1418 23.8244 88.5986 23.9739C87.6917 24.248 86.8097 24.1733 86.117 23.7796C85.1353 23.2514 84.6021 22.2996 84.652 21.4873H84.6819H94.0154V21.4823ZM87.9708 16.544C89.4956 16.5689 90.6717 17.5805 90.8411 19.1054V19.2499H84.7765C84.8264 19.0655 84.8563 18.8811 84.931 18.7017C85.4144 17.3313 86.6004 16.5091 87.9708 16.544Z" fill="black"/>
<path d="M30.0869 28.2644C27.7348 28.6032 26.5588 26.6448 27.3312 24.9506C27.974 23.5403 28.288 22.0254 28.288 20.4109C28.288 18.7963 27.9989 17.3113 27.3561 15.9011C26.788 14.5257 27.7398 12.2185 30.0919 12.5623C31.3526 12.7467 32.3343 11.5607 32.3343 9.92623C32.3343 8.29174 31.3526 6.71207 30.0919 6.38318C28.7664 6.03934 27.6451 7.19544 27.6451 8.97942C27.6451 12.0889 25.9409 13.3397 24.5605 12.1737C23.3446 11.1371 21.9244 10.4694 20.2949 10.2103C18.6106 9.94118 16.9512 10.1854 15.4662 10.8431C15.3167 10.9079 15.1573 10.9627 14.9928 10.9827C13.3533 11.1969 10.772 9.26346 10.772 5.56593C10.772 3.24377 8.78873 0.851832 6.19249 0.179101C3.41685 -0.538479 1.00997 0.961462 1.00997 3.58262C1.00997 6.20378 3.41187 8.68043 6.19249 9.08407C10.0395 9.64219 11.983 11.9345 11.6042 13.7932C11.5594 14.0025 11.4747 14.2018 11.3601 14.3812C10.2887 16.0356 9.64086 18.0887 9.64086 20.4059C9.64086 22.6184 10.2388 24.5918 11.2255 26.2113C11.3351 26.3907 11.4149 26.585 11.4498 26.7943C11.7637 28.4986 10.0993 31.1497 6.18252 31.7177C3.40688 32.1214 1 34.598 1 37.2192C1 39.8403 3.40688 41.3453 6.18751 40.6227C8.78375 39.95 10.7671 37.563 10.7671 35.2458C10.7671 31.5433 13.0294 29.3756 14.8931 29.7544C15.0277 29.7793 15.1573 29.8291 15.2818 29.8889C16.8167 30.6115 18.5408 30.8955 20.2999 30.6115C21.9195 30.3523 23.3247 29.7045 24.5356 28.678C25.6668 27.791 27.6402 28.7328 27.6402 31.8423C27.6402 33.6263 28.7614 34.7824 30.0869 34.4386C31.3477 34.1097 32.3293 32.53 32.3293 30.8955C32.3293 29.261 31.3477 28.075 30.0869 28.2594V28.2644ZM20.2202 26.7894C16.8814 27.1631 13.8766 24.3277 13.8766 20.4109C13.8766 16.4941 16.8864 13.6586 20.2202 14.0324C23.2051 14.3712 25.4027 17.2117 25.4027 20.4109C25.4027 23.6101 23.2051 26.4555 20.2202 26.7894Z" fill="black"/>
</g>
<defs>
<clipPath id="clip0_2038_16501">
<rect width="170.5" height="41.4552" fill="white" transform="translate(0 -0.000244141)"/>
</clipPath>
</defs>
</svg>
