<svg width="69" height="24" viewBox="0 0 69 24" fill="none" xmlns="http://www.w3.org/2000/svg">
<g clip-path="url(#clip0_2307_16345)">
<path d="M29.452 0.978699L17.9971 9.57373C17.4588 7.45965 16.2146 5.58051 14.4606 4.23247C12.7067 2.88442 10.5428 2.14412 8.30991 2.12826H0.0887451V21.8847H8.30991C10.5547 21.9143 12.7417 21.1909 14.5051 19.8356C16.2685 18.4803 17.5013 16.5753 17.9971 14.4393L29.452 23.0343L40.9068 14.4393V21.8847H53.8278V17.8747H45.3051V2.11489H40.6054V9.56033L29.7398 18.1553L27.3967 16.1503L32.6857 12.1402L38.2623 7.84935L35.0287 5.26951L24.1631 13.5704L21.82 11.5654L32.6857 3.54516L29.452 0.965332V0.978699ZM4.48707 6.125H8.0085C8.73718 6.12638 9.457 6.28142 10.1186 6.57948C10.7906 6.88101 11.3958 7.30786 11.8998 7.83598C12.4304 8.39186 12.8488 9.04037 13.133 9.74744C13.7173 11.2503 13.7173 12.9098 13.133 14.4126C12.8672 15.1175 12.4726 15.7697 11.9683 16.3374C11.4782 16.8954 10.8768 17.3502 10.2008 17.6741C9.50443 18.0021 8.74068 18.1712 7.96737 18.1687H4.48707V6.13837V6.125ZM68.4889 17.8747V21.8847H55.5816V2.11489H60.2814V17.8747H68.5025H68.4889Z" fill="black"/>
</g>
<defs>
<clipPath id="clip0_2307_16345">
<rect width="68.4138" height="22.069" fill="white" transform="translate(0.0887451 0.965332)"/>
</clipPath>
</defs>
</svg>
