<svg width="87" height="16" viewBox="0 0 87 16" fill="none" xmlns="http://www.w3.org/2000/svg">
<path fill-rule="evenodd" clip-rule="evenodd" d="M81.6543 3.08511C83.2036 3.08511 84.8266 3.43088 85.9578 3.87544V0.837612C84.802 0.467146 83.2036 0.0966797 81.1133 0.0966797C77.1541 0.0966797 74.4736 1.57854 74.4736 4.66576C74.4736 10.0005 82.1216 8.91378 82.1216 11.3836C82.1216 12.3468 81.2117 12.8901 79.4165 12.8901C77.7935 12.8901 75.8999 12.8407 74.4244 12.1492V15.1623C75.8999 15.681 78.0394 15.9032 79.6624 15.9032C83.7692 15.9032 86.7448 14.6684 86.7448 10.8649C86.7448 5.77716 79.0476 7.25903 79.0476 4.2459C79.023 3.1098 80.2526 3.08511 81.6543 3.08511ZM65.4977 11.7787H64.1206V15.9032H59.3253V0.0966797C59.4237 0.0966797 63.137 0.170773 64.8092 0.0966797C69.7521 0.170773 73.0473 1.75143 73.0473 5.60428C73.0473 10.0993 69.8258 11.7787 65.4977 11.7787ZM64.8338 2.83813C64.5879 2.83813 64.4157 2.83813 64.1452 2.83813V9.01257H64.8338C67.2437 9.01257 68.252 8.27163 68.252 5.57958C68.252 3.92483 67.1208 2.86283 64.8338 2.83813ZM51.8249 0.0966797H56.6202V15.9032H51.8249V0.0966797ZM40.1931 15.9032V0.0966797H44.9885V12.4703H49.7838L49.0953 15.9032H40.1931ZM32.6682 0.0966797H37.4635V15.9032H32.6682V0.0966797ZM25.1432 9.7288H20.3479V15.9032H15.5525V0.0966797H20.3479V6.27112H25.1432V0.0966797H29.9385V15.9032H25.1432V9.7288ZM6.65042 11.7787H5.2733V15.9032H0.502563V0.0966797C0.600929 0.0966797 4.31424 0.170773 5.98645 0.0966797C10.9293 0.170773 14.2 1.75143 14.2 5.60428C14.2 10.0993 10.9785 11.7787 6.65042 11.7787ZM5.98645 2.83813C5.74054 2.83813 5.5684 2.83813 5.29789 2.83813V9.01257H5.98645C8.39642 9.01257 9.40467 8.27163 9.40467 5.57958C9.40467 3.92483 8.27346 2.86283 5.98645 2.83813Z" fill="black"/>
</svg>
