<svg width="125" height="36" viewBox="0 0 125 36" fill="none" xmlns="http://www.w3.org/2000/svg">
<path d="M76.1271 20.2306C76.1271 20.2306 75.8756 19.3056 75.8756 18.6249V7.92495H80.1474V28.5319L66.4697 17.1712C65.7391 16.5465 65.3079 15.8498 65.3079 15.8498C65.3079 15.8498 65.5235 16.6186 65.5235 17.2834L65.5195 28.0674H61.2477V7.54053L74.7977 18.6729C75.5243 19.2936 76.1271 20.2306 76.1271 20.2306Z" fill="black"/>
<path d="M114.811 7.92505C121.578 7.92505 123.315 10.604 123.315 14.4523C123.315 17.2434 121.267 19.9745 117.139 20.2988L116.688 20.3188C116.688 20.3188 117.087 20.3909 117.502 20.7954L125 28.0674H119.207L108.743 17.4116H113.957C118.624 17.4116 118.756 14.9449 118.792 14.3202C118.88 12.7224 118.369 11.441 114.807 11.441H108.851V28.0674H104.407V7.92505H114.811Z" fill="black"/>
<path d="M82.0696 18.2843C82.0696 9.84288 89.1121 7.62842 95.0327 7.62842C97.4042 7.62842 99.5042 7.84065 101.708 8.30917L101.716 12.5859C100.446 12.1975 97.8952 11.3365 95.0327 11.3365C89.4235 11.3365 86.6967 13.523 86.6967 18.2803C86.6967 22.1766 89.6311 24.6594 95.0327 24.6594C97.8952 24.6594 100.762 23.9746 102.147 23.462L102.139 27.6146C99.9313 28.0832 97.4002 28.3715 95.0327 28.3715C88.7088 28.3755 82.0696 25.2961 82.0696 18.2843Z" fill="black"/>
<path d="M33.988 8.44556L38.156 12.3819C38.0442 12.434 37.9125 12.4941 37.7567 12.5741C37.5172 12.6983 37.2298 12.8665 36.8824 13.1067C36.1957 13.5833 35.3015 14.3361 34.1557 15.5775L26.0153 24.2191C24.6179 25.6967 23.2007 26.87 21.8792 27.4907L17.7112 23.5544C17.823 23.5023 17.9587 23.4422 18.1064 23.3621C18.346 23.242 18.6334 23.0698 18.9807 22.8296C19.6674 22.353 20.5657 21.6002 21.7075 20.3588L29.8479 11.7292C31.2492 10.2516 32.6705 9.06224 33.988 8.44556Z" fill="black"/>
<path d="M17.8656 29.3407C19.7101 29.3407 21.3988 28.9723 22.5486 28.3756C23.0716 28.0993 23.8222 27.6268 24.469 27.1262C25.1117 26.6217 26.018 25.8408 26.7885 25.0199L34.9409 16.4023C36.9969 14.2319 38.2306 13.5592 38.9811 13.2949L43.1611 17.2673C42.2868 18.2043 31.8827 29.3207 31.8827 29.3207C31.1721 30.0895 30.4255 30.8304 29.9185 31.2989C29.4314 31.7514 28.597 32.4201 28.1619 32.7405C25.7146 34.5425 22.4448 36.0001 18.0413 36.0001C8.06841 36.0001 -0.00012207 27.855 -0.00012207 18.4806C-0.00012207 6.84769 9.0625 0.0961813 17.3147 0.0961813C19.8418 0.0200967 21.8739 0.448575 23.4749 0.993181C24.96 1.50175 26.0779 2.11042 26.8923 2.52689C25.9341 3.14357 25.0039 3.98451 23.4709 5.62633L21.8021 7.42834C21.4148 7.28017 19.7101 6.68351 17.5143 6.75159C12.2204 6.90776 6.42755 11.2165 6.63915 18.2764C6.83477 24.8757 12.2604 29.3407 17.8656 29.3407Z" fill="black"/>
<path d="M33.2761 7.62047C32.7491 7.89277 31.9986 8.3693 31.3558 8.86986C30.713 9.37042 29.8068 10.1553 29.0323 10.9722L20.8839 19.5898C18.8278 21.7602 17.5902 22.4329 16.8436 22.6972L12.6597 18.7288C13.534 17.7918 23.938 6.67542 23.938 6.67542C24.6487 5.90657 25.3952 5.16975 25.9023 4.69722C26.3893 4.24472 27.2277 3.57597 27.6589 3.25562C30.1022 1.45762 33.3759 0 37.7795 0C47.7564 0 55.8169 8.14105 55.8169 17.5195C55.8169 29.1564 46.7583 35.9039 38.5021 35.9039C35.975 35.98 33.9429 35.5515 32.3379 35.0069C30.8528 34.4984 29.7269 33.8857 28.9165 33.4692C29.9306 32.7845 30.8009 32.0276 32.3459 30.3738L34.0187 28.5718C34.402 28.7159 36.1107 29.3166 38.3025 29.2525C43.5964 29.0964 49.3892 24.7876 49.1816 17.7237C48.986 11.1204 43.5564 6.6554 37.9552 6.6554C36.1147 6.6554 34.4259 7.0198 33.2761 7.62047Z" fill="black"/>
</svg>
