<svg width="112" height="25" viewBox="0 0 112 25" fill="none" xmlns="http://www.w3.org/2000/svg">
<path d="M10.5391 9.25599C10.5391 10.3356 10.0805 11.2907 9.33015 12.0381C8.49642 12.8686 7.28751 13.0762 7.28751 13.7821C7.28751 14.7371 8.82991 14.4465 10.3098 15.9206C11.2894 16.8964 11.8939 18.1836 11.8939 19.6785C11.8939 22.6267 9.51774 24.9728 6.53715 24.9728C3.55656 24.9728 1.18042 22.6287 1.18042 19.6806C1.18042 18.1857 1.78488 16.8985 2.76451 15.9226C4.24438 14.4486 5.78679 14.7392 5.78679 13.7842C5.78679 13.0783 4.57788 12.8706 3.74415 12.0402C2.99379 11.2927 2.53523 10.3377 2.53523 9.21655C2.53523 7.05731 4.30691 5.31331 6.47462 5.31331C6.89148 5.31331 7.26666 5.37559 7.57931 5.37559C8.14208 5.37559 8.43389 5.12645 8.43389 4.73197C8.43389 4.50359 8.32967 4.21293 8.32967 3.9015C8.32967 3.19559 8.93413 2.61426 9.66364 2.61426C10.3932 2.61426 10.9768 3.21635 10.9768 3.94302C10.9768 4.71121 10.3723 5.06416 9.91376 5.23026C9.53858 5.35483 9.24678 5.52093 9.24678 5.89464C9.24678 6.59847 10.5391 7.28361 10.5391 9.25599ZM10.1222 19.6806C10.1222 17.6251 8.60063 15.9642 6.53715 15.9642C4.47366 15.9642 2.9521 17.6251 2.9521 19.6806C2.9521 21.7152 4.47366 23.3969 6.53715 23.3969C8.60063 23.3969 10.1222 21.7131 10.1222 19.6806ZM8.89244 9.21447C8.89244 7.90647 7.82943 6.82685 6.53715 6.82685C5.24486 6.82685 4.18185 7.90647 4.18185 9.21447C4.18185 10.5225 5.24486 11.6021 6.53715 11.6021C7.82943 11.6021 8.89244 10.5225 8.89244 9.21447Z" fill="black"/>
<path d="M18.0424 5.51883C18.7094 5.51883 19.2096 6.01711 19.2096 6.63997C19.2096 7.26283 18.7302 7.76112 18.0632 7.76112C17.3754 7.76112 17.0002 7.32512 16.3124 7.32512C15.6454 7.32512 15.1243 7.80264 15.1243 8.61235V15.1524C15.1243 15.6506 14.7283 16.0451 14.2281 16.0451C13.7487 16.0451 13.3527 15.6506 13.3527 15.1524V6.34931C13.3527 5.85102 13.7487 5.45654 14.2281 5.45654C15.1243 5.45654 14.9576 6.30778 15.8539 6.30778C16.7084 6.30778 17.0211 5.51883 18.0424 5.51883Z" fill="black"/>
<path d="M19.9803 10.7511C19.9803 7.61608 22.1481 5.35303 25.1286 5.35303C27.8591 5.35303 30.0268 7.34617 30.0268 10.066C30.0268 10.7096 29.61 11.1456 29.0055 11.1456H22.2314C21.9396 11.1456 21.8354 11.2494 21.8354 11.4778C21.8354 11.9968 22.2523 12.9519 22.8776 13.5747C23.5029 14.1976 24.3574 14.5713 25.5664 14.5713C26.4626 14.5713 27.2547 14.2391 27.8591 13.8031C28.0467 13.6578 28.2551 13.5747 28.4636 13.5747C28.9013 13.5747 29.2556 13.9692 29.2556 14.3845C29.2556 14.6336 29.1722 14.8412 28.9638 15.0281C28.0884 15.7547 26.8586 16.1492 25.5247 16.1492C22.294 16.1492 19.9803 13.8239 19.9803 10.7511ZM27.3589 7.76141C26.7753 7.18008 26.0249 6.88941 25.1286 6.88941C24.2324 6.88941 23.3986 7.24236 22.7942 7.84446C22.3148 8.32198 21.9813 8.94484 21.9813 9.36008C21.9813 9.5677 22.1064 9.65074 22.3773 9.65074H27.7966C28.0467 9.65074 28.1718 9.5677 28.1718 9.36008C28.1718 8.86179 27.7757 8.17665 27.3589 7.76141Z" fill="black"/>
<path d="M31.8192 10.7511C31.8192 7.61608 33.9869 5.35303 36.9675 5.35303C39.698 5.35303 41.8657 7.34617 41.8657 10.066C41.8657 10.7096 41.4488 11.1456 40.8444 11.1456H34.0703C33.7785 11.1456 33.6743 11.2494 33.6743 11.4778C33.6743 11.9968 34.0911 12.9519 34.7164 13.5747C35.3417 14.1976 36.1963 14.5713 37.4052 14.5713C38.3015 14.5713 39.0935 14.2391 39.698 13.8031C39.8856 13.6578 40.094 13.5747 40.3024 13.5747C40.7401 13.5747 41.0945 13.9692 41.0945 14.3845C41.0945 14.6336 41.0111 14.8412 40.8027 15.0281C39.9273 15.7547 38.6975 16.1492 37.3635 16.1492C34.1328 16.1492 31.8192 13.8239 31.8192 10.7511ZM39.1977 7.76141C38.6141 7.18008 37.8638 6.88941 36.9675 6.88941C36.0712 6.88941 35.2375 7.24236 34.6331 7.84446C34.1537 8.32198 33.8202 8.94484 33.8202 9.36008C33.8202 9.5677 33.9452 9.65074 34.2162 9.65074H39.6355C39.8856 9.65074 40.0106 9.5677 40.0106 9.36008C40.0106 8.86179 39.6146 8.17665 39.1977 7.76141Z" fill="black"/>
<path d="M52.3089 16.0454C51.8086 16.0454 51.4126 15.6509 51.4126 15.1527V9.50541C51.4126 8.03131 50.2454 6.91017 48.7446 6.91017C47.2231 6.91017 46.0559 8.05208 46.0559 9.50541V15.1527C46.0559 15.6509 45.6598 16.0454 45.1596 16.0454C44.6802 16.0454 44.2842 15.6509 44.2842 15.1527V6.32884C44.2842 5.85131 44.6802 5.45684 45.1388 5.45684C46.0142 5.45684 45.9725 6.24579 46.431 6.24579C46.8896 6.24579 47.5149 5.35303 49.1407 5.35303C51.4126 5.35303 53.1843 7.24236 53.1843 9.50541V15.1527C53.1843 15.6509 52.7882 16.0454 52.3089 16.0454Z" fill="black"/>
<path d="M64.2733 16.0452C63.7731 16.0452 63.3771 15.6507 63.3771 15.1524V9.50517C63.3771 8.03107 62.2098 6.90993 60.7091 6.90993C59.1876 6.90993 58.0203 8.05183 58.0203 9.50517V15.1524C58.0203 15.6507 57.6243 16.0452 57.1241 16.0452C56.6447 16.0452 56.2487 15.6507 56.2487 15.1524V1.15888C56.2487 0.66059 56.6447 0.266113 57.1241 0.266113C57.6243 0.266113 58.0203 0.66059 58.0203 1.15888V5.74726C58.0203 5.9964 58.1246 6.14174 58.3955 6.14174C58.8541 6.14174 59.4794 5.35278 61.1051 5.35278C63.3771 5.35278 65.1487 7.24212 65.1487 9.50517V15.1524C65.1487 15.6507 64.7527 16.0452 64.2733 16.0452Z" fill="black"/>
<path d="M67.5862 10.7511C67.5862 7.74065 70.004 5.35303 73.0471 5.35303C76.0903 5.35303 78.5081 7.74065 78.5081 10.7511C78.5081 13.7616 76.0903 16.1492 73.0471 16.1492C70.0061 16.1492 67.5862 13.7616 67.5862 10.7511ZM76.7385 10.7511C76.7385 8.65417 75.1752 6.93093 73.0492 6.93093C70.944 6.93093 69.3808 8.65417 69.3808 10.7511C69.3808 12.8481 70.944 14.5713 73.0492 14.5713C75.1752 14.5713 76.7385 12.8481 76.7385 10.7511Z" fill="black"/>
<path d="M81.8209 5.45654C82.3211 5.45654 82.7171 5.85102 82.7171 6.34931V11.9965C82.7171 13.4706 83.8843 14.5918 85.3851 14.5918C86.9066 14.5918 88.0738 13.4499 88.0738 11.9965V6.34931C88.0738 5.85102 88.4699 5.45654 88.9701 5.45654C89.4495 5.45654 89.8455 5.85102 89.8455 6.34931V15.1731C89.8455 15.6506 89.4495 16.0451 88.9909 16.0451C88.1155 16.0451 88.1572 15.2562 87.6987 15.2562C87.2401 15.2562 86.6148 16.1489 84.989 16.1489C82.7171 16.1489 80.9454 14.2596 80.9454 11.9965V6.34931C80.9475 5.85102 81.3415 5.45654 81.8209 5.45654Z" fill="black"/>
<path d="M92.9924 15.381C92.5964 15.1319 92.3254 14.8827 92.3254 14.4052C92.3254 13.9485 92.6798 13.5955 93.1175 13.5955C93.6386 13.5955 93.8678 13.9069 94.3056 14.1353C94.8475 14.4467 95.4728 14.6128 96.244 14.6128C97.6613 14.6128 98.37 13.9692 98.37 13.1803C98.37 12.0591 97.3278 11.8515 95.9105 11.4778C94.1596 11.021 92.4713 10.502 92.4713 8.48808C92.4713 6.70255 93.847 5.35303 96.2857 5.35303C97.2445 5.35303 98.1407 5.60217 98.8494 6.03817C99.0995 6.1835 99.3496 6.49493 99.3496 6.84789C99.3496 7.30465 98.9745 7.69912 98.4951 7.69912C98.1824 7.69912 97.9323 7.4915 97.6196 7.28389C97.307 7.07627 96.8484 6.88941 96.2231 6.88941C94.8266 6.88941 94.2222 7.4915 94.2222 8.30122C94.2222 9.36008 95.2435 9.60922 96.7025 9.96217C98.4117 10.3774 100.1 10.9172 100.1 12.9727C100.1 14.7582 98.766 16.1492 96.2023 16.1492C94.9517 16.1492 93.8262 15.9001 92.9924 15.381Z" fill="black"/>
<path d="M101.768 10.7511C101.768 7.61608 103.936 5.35303 106.916 5.35303C109.647 5.35303 111.814 7.34617 111.814 10.066C111.814 10.7096 111.397 11.1456 110.793 11.1456H104.019C103.727 11.1456 103.623 11.2494 103.623 11.4778C103.623 11.9968 104.04 12.9519 104.665 13.5747C105.29 14.1976 106.145 14.5713 107.354 14.5713C108.25 14.5713 109.042 14.2391 109.647 13.8031C109.834 13.6578 110.043 13.5747 110.251 13.5747C110.689 13.5747 111.043 13.9692 111.043 14.3845C111.043 14.6336 110.96 14.8412 110.751 15.0281C109.876 15.7547 108.646 16.1492 107.312 16.1492C104.084 16.1492 101.768 13.8239 101.768 10.7511ZM109.148 7.76141C108.565 7.18008 107.814 6.88941 106.918 6.88941C106.022 6.88941 105.188 7.24236 104.584 7.84446C104.104 8.32198 103.771 8.94484 103.771 9.36008C103.771 9.5677 103.896 9.65074 104.167 9.65074H109.586C109.836 9.65074 109.961 9.5677 109.961 9.36008C109.961 8.86179 109.565 8.17665 109.148 7.76141Z" fill="black"/>
</svg>
